# xmcd
#
# Track frame offsets:
#	150
#	21375
#	36020
#	52342
#	69495
#	98217
#	120500
#	144305
#	181430
#
# Disc length: 3856 seconds
#
# Revision: 1
# Processed by: cddbd v1.4PL0 Copyright (c) Steve Scherf et al.
# Submitted via: audiograbber 1.81.03
#
DISCID=7e0f0e09
DTITLE=Chicago Beau - Last Of The Sa Boom Boom Gypsies CD1
DYEAR=1900
DGENRE=Blues
TTITLE0=Having A Fit Over Your Love
TTITLE1=Mama's Baby, Daddy's Maybe
TTITLE2=Jumping The Broom
TTITLE3=Stop Breaking Down
TTITLE4=Can't Send The Children To School
TTITLE5=Shake Your Boogie Woogie
TTITLE6=Tribute To Elmore James And J.B. Hutto
TTITLE7=Country Shack
TTITLE8=Chi-griot Chanson - I, The Blues
EXTD=
EXTT0=
EXTT1=
EXTT2=
EXTT3=
EXTT4=
EXTT5=
EXTT6=
EXTT7=
EXTT8=
PLAYORDER=
